# Blender 5.0.1
# www.blender.org
mtllib ducksq.mtl
o squared_duck
v -5.000000 -0.000000 -4.500000
v -5.000000 0.000000 4.500000
v -5.000000 3.000000 -4.500000
v -5.000000 3.000000 -2.500000
v -5.000000 3.000000 2.500000
v -5.000000 3.000000 4.500000
v -5.000000 4.500000 -2.500000
v -5.000000 4.500000 2.500000
v 1.000000 -0.000000 -4.500000
v 1.000000 -0.000000 -2.500000
v 1.000000 0.000000 2.500000
v 1.000000 0.000000 4.500000
v 1.000000 3.000000 -4.500000
v 1.000000 3.000000 -2.500000
v 1.000000 3.000000 2.500000
v 1.000000 3.000000 4.500000
v 3.000000 4.500000 -1.500000
v 3.000000 4.500000 1.500000
v 3.000000 9.500000 -1.500001
v 3.000000 9.500000 1.499999
v 5.000000 -0.000000 -2.500000
v 5.000000 0.000000 2.500000
v 5.000000 4.500000 -2.500000
v 5.000000 4.500000 -1.500000
v 5.000000 4.500000 1.500000
v 5.000000 4.500000 2.500000
v 5.000000 7.000000 -1.500000
v 5.000000 7.000000 1.500000
v 5.000000 8.000000 -1.500001
v 5.000000 8.000000 1.499999
v 5.000000 9.500000 -1.500001
v 5.000000 9.500000 1.499999
v 7.000000 7.000000 -1.500000
v 7.000000 7.000000 1.500000
v 7.000000 8.000000 -1.500001
v 7.000000 8.000000 1.499999
vn -0.0000 1.0000 -0.0000
vn 1.0000 -0.0000 -0.0000
vn -0.0000 -0.0000 -1.0000
vn -0.0000 -0.0000 1.0000
vn -1.0000 -0.0000 -0.0000
vn -0.0000 -1.0000 -0.0000
vt 0.911111 0.266667
vt 0.911111 -0.000000
vt 0.822222 0.266667
vt 0.822222 -0.000000
vt 0.911111 0.400000
vt 0.822222 0.400000
vt 0.622222 0.444445
vt 0.622222 0.711111
vt 0.755556 0.444445
vt 0.755556 0.711111
vt 0.622222 0.177778
vt 0.755556 0.177778
vt 0.622222 0.000000
vt 0.822222 -0.000000
vt 0.822222 0.444444
vt 0.755556 0.444444
vt 0.888889 0.444445
vt 0.888889 0.711111
vt 0.977778 0.444445
vt 0.977778 0.711111
vt 0.200000 0.977778
vt 0.200000 0.844445
vt 0.288889 0.977778
vt 0.288889 0.844445
vt 0.755556 0.711111
vt 0.755556 0.444445
vt 0.711111 0.711111
vt 0.622222 0.711111
vt 0.711111 0.822222
vt 0.622222 0.933334
vt 0.711111 0.866667
vt 0.711111 0.933334
vt 0.800000 0.866667
vt 0.800000 0.822222
vt 0.000000 0.622222
vt 0.000000 0.444444
vt 0.133333 0.622222
vt 0.200000 0.444444
vt 0.200000 0.888889
vt 0.133333 0.888889
vt 0.333333 0.444445
vt 0.200000 0.444445
vt 0.333333 0.533333
vt 0.200000 0.844445
vt 0.333333 0.755556
vt 0.333333 0.844445
vt 0.400000 0.755556
vt 0.400000 0.533333
vt 0.444444 0.000000
vt 0.400000 0.000000
vt 0.444444 0.088889
vt 0.400000 0.444445
vt 0.622222 0.444445
vt 0.577778 0.088889
vt 0.622222 0.000000
vt 0.577778 0.000000
vt 0.088889 0.000000
vt 0.311111 0.000000
vt 0.088889 0.177778
vt 0.311111 0.177778
vt 0.000000 0.444445
vt 0.400000 0.177778
vt -0.000000 0.177778
vt 0.800000 0.933334
vt 0.933333 0.933334
vt 0.800000 0.711111
vt 0.933333 0.711111
vt 0.488889 0.755556
vt 0.488889 0.866667
vt 0.400000 0.755556
vt 0.400000 0.977778
vt 0.488889 0.911111
vt 0.488889 0.977778
vt 0.577778 0.866667
vt 0.577778 0.911111
vt 0.444444 0.444445
vt 0.577778 0.444445
vt 0.444444 0.555556
vt 0.577778 0.555556
vt 0.622222 0.755556
vt 0.622222 0.555556
vt 0.400000 0.555556
vt 0.377778 0.977778
vt 0.377778 0.844445
vt 0.288889 0.977778
vt 0.288889 0.844445
vt 0.911111 0.133333
vt 0.911111 0.000000
vt 1.000000 0.133333
vt 1.000000 0.000000
vt 0.911111 0.266667
vt 1.000000 0.266667
vt 0.622222 0.888889
vt 0.577778 0.755556
vt 0.577778 0.888889
vt 0.977778 0.400000
vt 0.977778 0.266667
s 1
usemtl Material.001
f 4/1/1 14/2/1 3/3/1
f 3/3/1 14/2/1 13/4/1
f 14/1/2 10/5/2 13/3/2
f 13/3/2 10/5/2 9/6/2
f 9/7/3 1/8/3 13/9/3
f 13/9/3 1/8/3 3/10/3
f 10/11/3 14/12/3 21/13/3
f 21/13/3 14/12/3 23/14/3
f 23/14/3 14/12/3 7/15/3
f 7/15/3 14/12/3 4/16/3
f 15/17/1 5/18/1 16/19/1
f 16/19/1 5/18/1 6/20/1
f 11/21/2 15/22/2 12/23/2
f 12/23/2 15/22/2 16/24/2
f 2/25/4 12/26/4 6/18/4
f 6/18/4 12/26/4 16/17/4
f 24/27/3 17/28/3 27/29/3
f 27/29/3 17/28/3 19/30/3
f 27/29/3 19/30/3 29/31/3
f 29/31/3 19/30/3 31/32/3
f 29/31/3 35/33/3 27/29/3
f 27/29/3 35/33/3 33/34/3
f 11/35/4 22/36/4 15/37/4
f 15/37/4 22/36/4 26/38/4
f 15/37/4 26/38/4 8/39/4
f 8/39/4 5/40/4 15/37/4
f 3/41/5 1/42/5 4/43/5
f 4/43/5 1/42/5 2/44/5
f 4/43/5 2/44/5 5/45/5
f 5/45/5 2/44/5 6/46/5
f 8/47/5 7/48/5 5/45/5
f 5/45/5 7/48/5 4/43/5
f 24/49/1 23/50/1 17/51/1
f 17/51/1 23/50/1 7/52/1
f 17/51/1 7/52/1 8/53/1
f 17/51/1 8/53/1 18/54/1
f 18/54/1 8/53/1 26/55/1
f 18/54/1 26/55/1 25/56/1
f 21/57/6 22/58/6 10/59/6
f 10/59/6 22/58/6 11/60/6
f 10/59/6 11/60/6 1/61/6
f 1/61/6 11/60/6 2/52/6
f 2/52/6 11/60/6 12/62/6
f 1/61/6 9/63/6 10/59/6
f 17/64/5 18/65/5 19/66/5
f 19/66/5 18/65/5 20/67/5
f 25/68/4 28/69/4 18/70/4
f 18/70/4 28/69/4 20/71/4
f 20/71/4 28/69/4 30/72/4
f 20/71/4 30/72/4 32/73/4
f 28/69/4 34/74/4 30/72/4
f 30/72/4 34/74/4 36/75/4
f 27/76/2 28/77/2 24/78/2
f 24/78/2 28/77/2 25/79/2
f 24/78/2 25/79/2 21/47/2
f 21/47/2 25/79/2 22/80/2
f 22/80/2 25/79/2 26/81/2
f 21/47/2 23/82/2 24/78/2
f 32/83/1 31/84/1 20/85/1
f 20/85/1 31/84/1 19/86/1
f 28/87/6 27/88/6 34/89/6
f 34/89/6 27/88/6 33/90/6
f 29/87/1 30/91/1 35/89/1
f 35/89/1 30/91/1 36/92/1
f 35/80/2 36/93/2 33/94/2
f 33/94/2 36/93/2 34/95/2
f 30/5/2 29/1/2 32/96/2
f 32/96/2 29/1/2 31/97/2
