# Blender 5.0.1
# www.blender.org
o non_horizontal_slope
v -60.000000 -10.000003 -40.000000
v -60.000000 -9.999997 40.000000
v -60.000000 -0.000003 -40.000000
v -60.000000 0.000003 40.000000
v -32.000000 -10.000000 0.000001
v -32.000000 10.000000 -0.000001
v -31.732052 -10.000000 -0.999999
v -31.732052 -10.000000 1.000001
v -31.732052 10.000000 -1.000001
v -31.732052 10.000000 0.999999
v -30.999998 -10.000000 -1.732050
v -30.999998 -10.000000 1.732052
v -30.999998 10.000000 -1.732052
v -30.999998 10.000000 1.732050
v -30.000000 -10.000000 -1.999999
v -30.000000 -10.000000 2.000001
v -30.000000 10.000000 -2.000001
v -30.000000 10.000000 1.999999
v -30.000000 35.752609 -19.358223
v -30.000000 35.752609 19.358219
v -29.000002 -10.000000 -1.732050
v -29.000002 -10.000000 1.732052
v -29.000002 10.000000 -1.732052
v -29.000002 10.000000 1.732050
v -28.267948 -10.000000 -0.999999
v -28.267948 -10.000000 1.000001
v -28.267948 10.000000 -1.000001
v -28.267948 10.000000 0.999999
v -28.000000 -10.000000 0.000001
v -28.000000 10.000000 -0.000001
v 28.000000 -10.000000 0.000001
v 28.000000 10.000000 -0.000001
v 28.267948 -10.000000 -0.999999
v 28.267948 -10.000000 1.000001
v 28.267948 10.000000 -1.000001
v 28.267948 10.000000 0.999999
v 29.000002 -10.000000 -1.732050
v 29.000002 -10.000000 1.732052
v 29.000002 10.000000 -1.732052
v 29.000002 10.000000 1.732050
v 30.000000 -10.000000 -1.999999
v 30.000000 -10.000000 2.000001
v 30.000000 10.000000 -2.000001
v 30.000000 10.000000 1.999999
v 30.000000 35.752609 -19.358223
v 30.000000 35.752609 19.358219
v 30.999998 -10.000000 -1.732050
v 30.999998 -10.000000 1.732052
v 30.999998 10.000000 -1.732052
v 30.999998 10.000000 1.732050
v 31.732052 -10.000000 -0.999999
v 31.732052 -10.000000 1.000001
v 31.732052 10.000000 -1.000001
v 31.732052 10.000000 0.999999
v 32.000000 -10.000000 0.000001
v 32.000000 10.000000 -0.000001
v 60.000000 -10.000003 -40.000000
v 60.000000 -9.999997 40.000000
v 60.000000 -0.000003 -40.000000
v 60.000000 0.000003 40.000000
vn -0.8660 -0.0000 -0.5000
vn -1.0000 -0.0000 -0.0000
vn -0.8660 -0.0000 0.5000
vn -0.5000 -0.0000 0.8660
vn -0.0000 -0.0000 1.0000
vn 0.5000 -0.0000 0.8660
vn 0.8660 -0.0000 0.5000
vn 1.0000 -0.0000 -0.0000
vn 0.8660 -0.0000 -0.5000
vn 0.5000 -0.0000 -0.8660
vn -0.0000 -0.0000 -1.0000
vn -0.5000 -0.0000 -0.8660
vn -0.0000 -1.0000 -0.0000
vn -0.0000 0.5000 -0.8660
vn -0.7660 0.6428 -0.0000
vn -0.0000 0.5000 0.8660
vn 0.7660 0.6428 -0.0000
vn -0.0000 1.0000 -0.0000
vt 0.654769 0.700000
vt 0.654769 0.600000
vt 0.659769 0.700000
vt 0.659769 0.600000
vt 0.664769 0.700000
vt 0.664769 0.600000
vt 0.668429 0.700000
vt 0.668429 0.600000
vt 0.730390 0.600000
vt 0.730390 0.699621
vt 0.725390 0.600117
vt 0.725390 0.699738
vt 0.720390 0.600000
vt 0.720390 0.699621
vt 0.685749 0.600000
vt 0.685749 0.700000
vt 0.682089 0.600000
vt 0.682089 0.700000
vt 0.677089 0.600000
vt 0.677089 0.700000
vt 0.672089 0.600000
vt 0.672089 0.700000
vt 0.668429 0.600000
vt 0.740390 0.696939
vt 0.740390 0.600347
vt 0.745390 0.696593
vt 0.745390 0.600000
vt 0.750390 0.696939
vt 0.750390 0.600347
vt 0.651108 0.700000
vt 0.651108 0.600000
vt 0.658179 0.700000
vt 0.670427 0.712247
vt 0.653697 0.702588
vt 0.667839 0.716730
vt 0.651108 0.707071
vt 0.663356 0.719319
vt 0.651108 0.712247
vt 0.658179 0.719319
vt 0.653696 0.716730
vt 0.670427 0.707071
vt 0.663356 0.700000
vt 0.667839 0.702588
vt 0.689410 0.700000
vt 0.689410 0.600000
vt 0.694410 0.700000
vt 0.694410 0.600000
vt 0.699410 0.700000
vt 0.699410 0.600000
vt 0.703070 0.700000
vt 0.703070 0.600000
vt 0.740390 0.600000
vt 0.740390 0.699621
vt 0.735390 0.600117
vt 0.735390 0.699738
vt 0.730390 0.600000
vt 0.730390 0.699621
vt 0.720390 0.600000
vt 0.720390 0.700000
vt 0.716730 0.600000
vt 0.716730 0.700000
vt 0.711730 0.600000
vt 0.711730 0.700000
vt 0.706730 0.600000
vt 0.706730 0.700000
vt 0.755390 0.696593
vt 0.755390 0.600000
vt 0.760390 0.696939
vt 0.760390 0.600347
vt 0.685749 0.700000
vt 0.685749 0.600000
vt 0.677498 0.700000
vt 0.689745 0.712247
vt 0.673015 0.702588
vt 0.687157 0.716730
vt 0.670427 0.707071
vt 0.682674 0.719319
vt 0.670427 0.712247
vt 0.677498 0.719319
vt 0.673015 0.716730
vt 0.689745 0.707071
vt 0.682674 0.700000
vt 0.687157 0.702588
vt 0.697491 -0.000000
vt 0.697491 0.600000
vt 0.647681 -0.000000
vt 0.647681 0.600000
vt 0.178763 1.000000
vt 0.178763 0.600000
vt 0.228763 1.000000
vt 0.228763 0.600000
vt 0.599384 0.600000
vt 0.599384 0.000000
vt 0.647681 0.600000
vt 0.647681 0.000000
vt 0.278763 0.600000
vt 0.278763 1.000000
vt 0.205000 0.458660
vt 0.400000 0.600000
vt 0.200000 0.460000
vt -0.000000 0.600000
vt 0.195000 0.458660
vt 0.191340 0.455000
vt 0.190000 0.450000
vt 0.191340 0.445000
vt 0.000000 0.000000
vt 0.191340 0.155000
vt 0.190000 0.150000
vt 0.191340 0.145000
vt 0.195000 0.141340
vt 0.200000 0.140000
vt 0.400000 0.000000
vt 0.205000 0.141340
vt 0.208660 0.145000
vt 0.210000 0.150000
vt 0.208660 0.155000
vt 0.208660 0.445000
vt 0.205000 0.158660
vt 0.205000 0.441340
vt 0.200000 0.440000
vt 0.208660 0.455000
vt 0.210000 0.450000
vt 0.195000 0.441340
vt 0.195000 0.158660
vt 0.200000 0.160000
vt 0.400000 0.150000
vt 0.400000 0.450000
vt 0.457526 0.896791
vt 0.457526 0.703209
vt 0.884550 0.150000
vt 0.884550 0.450000
vt 0.000000 0.896791
vt 0.000000 0.703209
vt 0.651108 0.600000
vt 0.651108 0.900000
vt 0.457526 0.600000
vt 0.457526 0.900000
s 1
f 52/1/1 54/2/1 55/3/2
f 55/3/2 54/2/1 56/4/2
f 55/3/2 56/4/2 51/5/3
f 51/5/3 56/4/2 53/6/3
f 51/5/3 53/6/3 47/7/4
f 47/7/4 53/6/3 49/8/4
f 47/9/4 49/10/4 41/11/5
f 41/11/5 49/10/4 43/12/5
f 41/11/5 43/12/5 37/13/6
f 37/13/6 43/12/5 39/14/6
f 37/15/6 39/16/6 33/17/7
f 33/17/7 39/16/6 35/18/7
f 33/17/7 35/18/7 31/19/8
f 31/19/8 35/18/7 32/20/8
f 31/19/8 32/20/8 34/21/9
f 34/21/9 32/20/8 36/22/9
f 34/21/9 36/22/9 38/23/10
f 38/23/10 36/22/9 40/7/10
f 38/24/10 40/25/10 42/26/11
f 42/26/11 40/25/10 44/27/11
f 42/26/11 44/27/11 48/28/12
f 48/28/12 44/27/11 50/29/12
f 48/30/12 50/31/12 52/1/1
f 52/1/1 50/31/12 54/2/1
f 54/32/13 36/33/13 56/34/13
f 56/34/13 36/33/13 32/35/13
f 56/34/13 32/35/13 53/36/13
f 53/36/13 32/35/13 35/37/13
f 53/36/13 35/37/13 49/38/13
f 49/38/13 35/37/13 39/39/13
f 49/38/13 39/39/13 43/40/13
f 36/33/13 54/32/13 40/41/13
f 40/41/13 54/32/13 50/42/13
f 40/41/13 50/42/13 44/43/13
f 26/44/1 28/45/1 29/46/2
f 29/46/2 28/45/1 30/47/2
f 29/46/2 30/47/2 25/48/3
f 25/48/3 30/47/2 27/49/3
f 25/48/3 27/49/3 21/50/4
f 21/50/4 27/49/3 23/51/4
f 21/52/4 23/53/4 15/54/5
f 15/54/5 23/53/4 17/55/5
f 15/54/5 17/55/5 11/56/6
f 11/56/6 17/55/5 13/57/6
f 11/58/6 13/59/6 7/60/7
f 7/60/7 13/59/6 9/61/7
f 7/60/7 9/61/7 5/62/8
f 5/62/8 9/61/7 6/63/8
f 5/62/8 6/63/8 8/64/9
f 8/64/9 6/63/8 10/65/9
f 8/64/9 10/65/9 12/51/10
f 12/51/10 10/65/9 14/50/10
f 12/28/10 14/29/10 16/66/11
f 16/66/11 14/29/10 18/67/11
f 16/66/11 18/67/11 22/68/12
f 22/68/12 18/67/11 24/69/12
f 22/70/12 24/71/12 26/44/1
f 26/44/1 24/71/12 28/45/1
f 28/72/13 10/73/13 30/74/13
f 30/74/13 10/73/13 6/75/13
f 30/74/13 6/75/13 27/76/13
f 27/76/13 6/75/13 9/77/13
f 27/76/13 9/77/13 23/78/13
f 23/78/13 9/77/13 13/79/13
f 23/78/13 13/79/13 17/80/13
f 10/73/13 28/72/13 14/81/13
f 14/81/13 28/72/13 24/82/13
f 14/81/13 24/82/13 18/83/13
f 60/84/5 4/85/5 58/86/5
f 58/86/5 4/85/5 2/87/5
f 59/88/8 60/89/8 57/90/8
f 57/90/8 60/89/8 58/91/8
f 3/92/11 59/93/11 1/94/11
f 1/94/11 59/93/11 57/95/11
f 4/96/2 3/97/2 2/91/2
f 2/91/2 3/97/2 1/90/2
f 51/98/13 57/99/13 55/100/13
f 55/100/13 57/99/13 58/101/13
f 55/100/13 58/101/13 52/102/13
f 52/102/13 58/101/13 48/103/13
f 48/103/13 58/101/13 42/104/13
f 42/104/13 58/101/13 38/105/13
f 38/105/13 58/101/13 2/106/13
f 38/105/13 2/106/13 22/107/13
f 22/107/13 2/106/13 16/108/13
f 16/108/13 2/106/13 12/109/13
f 12/109/13 2/106/13 8/110/13
f 8/110/13 2/106/13 5/111/13
f 5/111/13 2/106/13 1/112/13
f 5/111/13 1/112/13 7/113/13
f 7/113/13 1/112/13 11/114/13
f 11/114/13 1/112/13 15/115/13
f 15/115/13 1/112/13 21/116/13
f 21/116/13 1/112/13 37/117/13
f 21/116/13 37/117/13 25/118/13
f 25/118/13 37/117/13 33/119/13
f 25/118/13 33/119/13 31/120/13
f 51/98/13 47/121/13 57/99/13
f 57/99/13 47/121/13 41/122/13
f 57/99/13 41/122/13 37/117/13
f 34/123/13 26/124/13 31/120/13
f 31/120/13 26/124/13 29/125/13
f 31/120/13 29/125/13 25/118/13
f 34/123/13 38/105/13 26/124/13
f 26/124/13 38/105/13 22/107/13
f 1/112/13 57/99/13 37/117/13
f 59/93/14 3/92/14 45/126/14
f 45/126/14 3/92/14 19/127/14
f 19/128/15 3/97/15 20/129/15
f 20/129/15 3/97/15 4/96/15
f 60/84/16 46/130/16 4/85/16
f 4/85/16 46/130/16 20/131/16
f 45/132/17 46/133/17 59/88/17
f 59/88/17 46/133/17 60/89/17
f 45/134/18 19/135/18 46/136/18
f 46/136/18 19/135/18 20/137/18
